<?xml version="1.0" encoding="UTF-8"?><svg id="_レイヤー_2" xmlns="http://www.w3.org/2000/svg" xmlns:xlink="http://www.w3.org/1999/xlink" viewBox="0 0 476.88 79.2"><defs><style>.cls-1{fill:url(#_名称未設定グラデーション_496);}.cls-2{fill:url(#_名称未設定グラデーション_496-2);}.cls-3{fill:url(#_名称未設定グラデーション_496-3);}.cls-4{fill:url(#_名称未設定グラデーション_496-5);}.cls-5{fill:url(#_名称未設定グラデーション_496-6);}.cls-6{fill:url(#_名称未設定グラデーション_496-7);}.cls-7{fill:url(#_名称未設定グラデーション_496-8);}.cls-8{fill:url(#_名称未設定グラデーション_496-9);}.cls-9{fill:url(#_名称未設定グラデーション_496-4);}.cls-10{fill:url(#_名称未設定グラデーション_496-10);}.cls-11{fill:url(#_名称未設定グラデーション_496-11);}</style><linearGradient id="_名称未設定グラデーション_496" x1="9.78" y1="66.29" x2="43.69" y2="7.54" gradientUnits="userSpaceOnUse"><stop offset="0" stop-color="red"/><stop offset=".11" stop-color="#fe0901"/><stop offset=".29" stop-color="#fe2405"/><stop offset=".52" stop-color="#fc4f0b"/><stop offset=".8" stop-color="#fb8914"/><stop offset="1" stop-color="#faba1c"/></linearGradient><linearGradient id="_名称未設定グラデーション_496-2" x1="57.94" y1="60.19" x2="81.41" y2="19.54" xlink:href="#_名称未設定グラデーション_496"/><linearGradient id="_名称未設定グラデーション_496-3" x1="90.1" y1="56.43" x2="116" y2="11.58" xlink:href="#_名称未設定グラデーション_496"/><linearGradient id="_名称未設定グラデーション_496-4" x1="136.71" y1="60.19" x2="160.17" y2="19.54" xlink:href="#_名称未設定グラデーション_496"/><linearGradient id="_名称未設定グラデーション_496-5" x1="173.39" y1="65.49" x2="200.81" y2="18" xlink:href="#_名称未設定グラデーション_496"/><linearGradient id="_名称未設定グラデーション_496-6" x1="213.81" y1="78.07" x2="248.41" y2="18.14" xlink:href="#_名称未設定グラデーション_496"/><linearGradient id="_名称未設定グラデーション_496-7" x1="266.06" y1="60.19" x2="289.53" y2="19.54" xlink:href="#_名称未設定グラデーション_496"/><linearGradient id="_名称未設定グラデーション_496-8" x1="313.39" y1="64.69" x2="345.66" y2="8.79" xlink:href="#_名称未設定グラデーション_496"/><linearGradient id="_名称未設定グラデーション_496-9" x1="359.09" y1="65.49" x2="386.51" y2="18" xlink:href="#_名称未設定グラデーション_496"/><linearGradient id="_名称未設定グラデーション_496-10" x1="407.02" y1="59.86" x2="430.47" y2="19.23" xlink:href="#_名称未設定グラデーション_496"/><linearGradient id="_名称未設定グラデーション_496-11" x1="447.28" y1="56.96" x2="473.75" y2="11.12" xlink:href="#_名称未設定グラデーション_496"/></defs><g id="_レイヤー_1-2"><g><path class="cls-1" d="M48.87,19.59c0,2.29-.36,4.4-1.07,6.31-.72,1.92-1.72,3.65-3.01,5.2-1.29,1.55-2.83,2.89-4.64,4.04-1.8,1.15-3.77,2.12-5.88,2.92l14.77,22.59h-15.98l-12.45-20.19h-3.35l-3.52,20.19H0L10.05,3.44H29.98c2.92,0,5.55,.4,7.9,1.2,2.35,.8,4.34,1.9,5.97,3.31,1.63,1.4,2.88,3.09,3.74,5.07,.86,1.98,1.29,4.17,1.29,6.57Zm-26.54,10.31c1.72,0,3.36-.16,4.94-.48,1.57-.32,2.95-.85,4.12-1.6,1.17-.75,2.12-1.73,2.83-2.94,.71-1.21,1.07-2.71,1.07-4.49,0-2.36-.7-4.03-2.1-5.01-1.4-.98-3.16-1.47-5.28-1.47h-5.84l-2.83,15.98h3.09Z"/><path class="cls-2" d="M73.53,17.7c2.06,0,3.91,.27,5.54,.82,1.63,.55,3.01,1.3,4.12,2.28,1.12,.97,1.97,2.1,2.58,3.39s.9,2.65,.9,4.08c0,2.86-.73,5.31-2.19,7.34-1.46,2.03-3.35,3.72-5.67,5.07-2.32,1.35-4.94,2.33-7.86,2.96-2.92,.63-5.84,.94-8.76,.94-.06,.34-.09,.63-.09,.86v.77c0,1.78,.43,3.15,1.29,4.12,.86,.97,2.29,1.46,4.3,1.46,1.83,0,3.81-.27,5.93-.82,2.12-.54,4.15-1.39,6.1-2.53l2.58,8.59c-2.35,1.43-4.94,2.53-7.77,3.31-2.83,.77-5.83,1.16-8.98,1.16-2.75,0-5.14-.42-7.17-1.25-2.03-.83-3.74-1.98-5.11-3.44-1.37-1.46-2.39-3.15-3.05-5.07-.66-1.92-.99-3.97-.99-6.14,0-4.01,.57-7.72,1.72-11.12,1.14-3.41,2.76-6.36,4.85-8.85,2.09-2.49,4.64-4.44,7.65-5.84,3.01-1.4,6.37-2.1,10.09-2.1Zm-2.06,9.19c-1.83,0-3.49,.84-4.98,2.53-1.49,1.69-2.46,3.91-2.92,6.66,1.43-.06,2.82-.24,4.17-.56,1.35-.31,2.53-.76,3.57-1.33,1.03-.57,1.85-1.23,2.45-1.98,.6-.74,.9-1.6,.9-2.58,0-1.83-1.06-2.75-3.18-2.75Z"/><path class="cls-3" d="M97.41,60.64c-2.35-15.81-5.58-29.83-9.71-42.09h13.23c1.32,4.47,2.49,9.1,3.52,13.92s1.77,9.91,2.23,15.29c1.09-2.29,2.06-4.57,2.92-6.83,.86-2.26,1.63-4.57,2.32-6.91,.69-2.35,1.26-4.8,1.72-7.34,.46-2.55,.83-5.25,1.12-8.12h13.31c-1.15,8.02-3.15,15.46-6.01,22.33-2.86,6.87-6.27,13.46-10.22,19.76h-14.43Z"/><path class="cls-9" d="M152.29,17.7c2.06,0,3.91,.27,5.54,.82,1.63,.55,3.01,1.3,4.12,2.28,1.12,.97,1.97,2.1,2.58,3.39s.9,2.65,.9,4.08c0,2.86-.73,5.31-2.19,7.34-1.46,2.03-3.35,3.72-5.67,5.07-2.32,1.35-4.94,2.33-7.86,2.96-2.92,.63-5.84,.94-8.76,.94-.06,.34-.09,.63-.09,.86v.77c0,1.78,.43,3.15,1.29,4.12,.86,.97,2.29,1.46,4.3,1.46,1.83,0,3.81-.27,5.93-.82,2.12-.54,4.15-1.39,6.1-2.53l2.58,8.59c-2.35,1.43-4.94,2.53-7.77,3.31-2.83,.77-5.83,1.16-8.98,1.16-2.75,0-5.14-.42-7.17-1.25-2.03-.83-3.74-1.98-5.11-3.44-1.37-1.46-2.39-3.15-3.05-5.07-.66-1.92-.99-3.97-.99-6.14,0-4.01,.57-7.72,1.72-11.12,1.14-3.41,2.76-6.36,4.85-8.85s4.64-4.44,7.65-5.84c3.01-1.4,6.37-2.1,10.09-2.1Zm-2.06,9.19c-1.83,0-3.49,.84-4.98,2.53-1.49,1.69-2.46,3.91-2.92,6.66,1.43-.06,2.82-.24,4.17-.56,1.35-.31,2.53-.76,3.57-1.33,1.03-.57,1.85-1.23,2.45-1.98,.6-.74,.9-1.6,.9-2.58,0-1.83-1.06-2.75-3.18-2.75Z"/><path class="cls-4" d="M165,60.64l7.47-42.09h12.88l-1.2,6.53c1.32-2.12,3.05-3.88,5.2-5.28,2.15-1.4,4.73-2.1,7.76-2.1,1.94,0,3.63,.37,5.08,1.12,1.45,.74,2.66,1.78,3.63,3.09,.97,1.32,1.69,2.86,2.18,4.64,.48,1.78,.73,3.69,.73,5.76,0,.8-.04,1.63-.13,2.49-.09,.86-.19,1.69-.3,2.49l-4.1,23.36h-13.34l4.12-23.36c.12-.57,.2-1.19,.26-1.85,.06-.66,.09-1.3,.09-1.93,0-1.49-.26-2.75-.77-3.78-.52-1.03-1.43-1.55-2.75-1.55-1.78,0-3.47,.83-5.07,2.49-1.6,1.66-2.95,3.52-4.04,5.58l-4.3,24.39h-13.4Z"/><path class="cls-5" d="M249.96,56.86c-.57,3.26-1.46,6.27-2.66,9.02-1.2,2.75-2.78,5.11-4.72,7.09-1.95,1.98-4.27,3.51-6.96,4.6-2.69,1.09-5.84,1.63-9.45,1.63-2.58,0-5.4-.32-8.46-.95-3.06-.64-5.91-1.59-8.55-2.86l2.58-9.76c2.4,1.09,4.67,1.87,6.79,2.36,2.12,.49,4.18,.73,6.18,.73,3.61,0,6.31-1.03,8.12-3.09,1.8-2.06,3.05-5.03,3.74-8.92l.86-4.89c-1.66,2.19-3.55,3.98-5.67,5.37-2.12,1.39-4.55,2.08-7.3,2.08-2.23,0-4.15-.44-5.76-1.33-1.6-.89-2.91-2.06-3.91-3.52-1-1.46-1.73-3.11-2.19-4.94-.46-1.83-.69-3.72-.69-5.67,0-3.66,.53-7.09,1.59-10.26,1.06-3.18,2.62-5.94,4.68-8.29,2.06-2.35,4.61-4.19,7.64-5.54,3.03-1.34,6.56-2.02,10.57-2.02,3.44,0,6.83,.42,10.18,1.25,3.35,.83,6.49,2.02,9.41,3.57l-6.01,34.36Zm-20.62-8.07c1.49,0,3.14-.73,4.94-2.18,1.8-1.45,3.56-3.61,5.28-6.46l2.06-11.72c-.46-.23-1.07-.43-1.85-.6-.77-.17-1.65-.26-2.62-.26-2.06,0-3.84,.46-5.32,1.37-1.49,.91-2.72,2.1-3.69,3.55s-1.69,3.09-2.15,4.92-.69,3.68-.69,5.56c0,1.71,.31,3.11,.95,4.19,.63,1.08,1.66,1.63,3.09,1.63Z"/><path class="cls-6" d="M281.65,17.7c2.06,0,3.91,.27,5.54,.82,1.63,.55,3.01,1.3,4.12,2.28,1.12,.97,1.97,2.1,2.58,3.39s.9,2.65,.9,4.08c0,2.86-.73,5.31-2.19,7.34-1.46,2.03-3.35,3.72-5.67,5.07-2.32,1.35-4.94,2.33-7.86,2.96-2.92,.63-5.84,.94-8.76,.94-.06,.34-.09,.63-.09,.86v.77c0,1.78,.43,3.15,1.29,4.12,.86,.97,2.29,1.46,4.3,1.46,1.83,0,3.81-.27,5.93-.82,2.12-.54,4.15-1.39,6.1-2.53l2.58,8.59c-2.35,1.43-4.94,2.53-7.77,3.31-2.83,.77-5.83,1.16-8.98,1.16-2.75,0-5.14-.42-7.17-1.25-2.03-.83-3.74-1.98-5.11-3.44-1.37-1.46-2.39-3.15-3.05-5.07-.66-1.92-.99-3.97-.99-6.14,0-4.01,.57-7.72,1.72-11.12,1.14-3.41,2.76-6.36,4.85-8.85s4.64-4.44,7.65-5.84c3.01-1.4,6.37-2.1,10.09-2.1Zm-2.06,9.19c-1.83,0-3.49,.84-4.98,2.53-1.49,1.69-2.46,3.91-2.92,6.66,1.43-.06,2.82-.24,4.17-.56,1.35-.31,2.53-.76,3.57-1.33,1.03-.57,1.85-1.23,2.45-1.98,.6-.74,.9-1.6,.9-2.58,0-1.83-1.06-2.75-3.18-2.75Z"/><path class="cls-7" d="M306.38,60.64L317.03,0h13.4l-6.7,38.31,13.14-19.76h15.55l-15.72,21.3c1.2,2.98,2.91,6.26,5.11,9.84,2.21,3.58,4.74,7.23,7.6,10.95h-15.46c-2.46-3.38-4.6-6.87-6.4-10.48s-3.19-6.87-4.17-9.79l-3.61,20.27h-13.4Z"/><path class="cls-8" d="M350.7,60.64l7.47-42.09h12.88l-1.2,6.53c1.32-2.12,3.05-3.88,5.2-5.28,2.15-1.4,4.73-2.1,7.76-2.1,1.94,0,3.63,.37,5.08,1.12,1.45,.74,2.66,1.78,3.63,3.09,.97,1.32,1.69,2.86,2.18,4.64,.48,1.78,.73,3.69,.73,5.76,0,.8-.04,1.63-.13,2.49-.09,.86-.19,1.69-.3,2.49l-4.1,23.36h-13.34l4.12-23.36c.12-.57,.2-1.19,.26-1.85,.06-.66,.09-1.3,.09-1.93,0-1.49-.26-2.75-.77-3.78-.52-1.03-1.43-1.55-2.75-1.55-1.78,0-3.47,.83-5.07,2.49-1.6,1.66-2.95,3.52-4.04,5.58l-4.3,24.39h-13.4Z"/><path class="cls-10" d="M440.38,35.22c0,3.38-.53,6.66-1.59,9.84-1.06,3.18-2.64,5.98-4.73,8.42-2.09,2.43-4.7,4.38-7.82,5.84-3.12,1.46-6.72,2.19-10.78,2.19-2.86,0-5.41-.46-7.65-1.37-2.23-.91-4.12-2.18-5.67-3.78-1.54-1.6-2.73-3.48-3.56-5.63-.83-2.15-1.25-4.42-1.25-6.83,0-4.01,.59-7.62,1.76-10.82,1.17-3.21,2.82-5.95,4.94-8.25,2.12-2.29,4.68-4.05,7.69-5.28,3.01-1.23,6.37-1.85,10.09-1.85,2.98,0,5.63,.46,7.95,1.37,2.32,.92,4.27,2.16,5.84,3.74,1.57,1.58,2.76,3.44,3.57,5.58,.8,2.15,1.2,4.42,1.2,6.83Zm-23.54,16.06c1.78,0,3.31-.49,4.6-1.46,1.29-.97,2.33-2.2,3.14-3.69,.8-1.49,1.4-3.14,1.8-4.94,.4-1.8,.6-3.54,.6-5.2,0-2.12-.52-3.99-1.54-5.63-1.03-1.63-2.69-2.45-4.98-2.45-1.6,0-3.01,.44-4.21,1.33-1.2,.89-2.22,2.06-3.05,3.52-.83,1.46-1.45,3.14-1.85,5.03-.4,1.89-.6,3.81-.6,5.76,0,2.06,.47,3.86,1.42,5.41,.94,1.55,2.5,2.32,4.68,2.32Z"/><path class="cls-11" d="M444.24,18.55h7.13l2.06-11.42h13.4l-1.97,11.42h12.03l-1.8,10.48h-12.11l-3.09,17.28c-.06,.29-.1,.56-.13,.81-.03,.26-.04,.53-.04,.81,0,.97,.28,1.77,.86,2.4,.57,.63,1.43,.94,2.58,.94s2.4-.14,3.61-.43c1.2-.29,2.43-.69,3.69-1.2l1.12,8.93c-1.55,.8-3.38,1.49-5.5,2.06-2.12,.57-4.3,.86-6.53,.86-4.18,0-7.43-1.18-9.75-3.56-2.32-2.37-3.48-5.35-3.48-8.95,0-.57,.03-1.16,.09-1.76,.06-.6,.14-1.16,.26-1.67l2.92-16.53h-7.13l1.8-10.48Z"/></g></g></svg>