<?xml version="1.0" encoding="UTF-8"?><svg id="_レイヤー_2" xmlns="http://www.w3.org/2000/svg" xmlns:xlink="http://www.w3.org/1999/xlink" viewBox="0 0 234.37 227.02"><defs><style>.cls-1{fill:none;}.cls-2{fill:url(#_名称未設定グラデーション_465);}.cls-3{fill:url(#_名称未設定グラデーション_457);}.cls-4{fill:url(#_名称未設定グラデーション_447);}.cls-5{fill:url(#_名称未設定グラデーション_447-6);}.cls-6{fill:url(#_名称未設定グラデーション_447-3);}.cls-7{fill:url(#_名称未設定グラデーション_447-4);}.cls-8{fill:url(#_名称未設定グラデーション_447-2);}.cls-9{fill:url(#_名称未設定グラデーション_447-5);}.cls-10{fill:url(#_名称未設定グラデーション_457-6);}.cls-11{fill:url(#_名称未設定グラデーション_457-4);}.cls-12{fill:url(#_名称未設定グラデーション_457-5);}.cls-13{fill:url(#_名称未設定グラデーション_457-3);}.cls-14{fill:url(#_名称未設定グラデーション_457-2);}.cls-15{fill:url(#_名称未設定グラデーション_465-2);}.cls-16{fill:url(#_名称未設定グラデーション_465-3);}.cls-17{fill:url(#_名称未設定グラデーション_465-6);}.cls-18{fill:url(#_名称未設定グラデーション_465-4);}.cls-19{fill:url(#_名称未設定グラデーション_465-5);}</style><linearGradient id="_名称未設定グラデーション_465" x1="96.77" y1="162.56" x2="203.66" y2="55.67" gradientUnits="userSpaceOnUse"><stop offset="0" stop-color="#ffc100"/><stop offset="1" stop-color="#faf959"/></linearGradient><linearGradient id="_名称未設定グラデーション_465-2" x1="61.62" y1="127.41" x2="168.52" y2="20.52" xlink:href="#_名称未設定グラデーション_465"/><linearGradient id="_名称未設定グラデーション_465-3" x1="108.07" y1="173.86" x2="214.96" y2="66.97" xlink:href="#_名称未設定グラデーション_465"/><linearGradient id="_名称未設定グラデーション_465-4" x1="57.32" y1="123.11" x2="164.21" y2="16.21" xlink:href="#_名称未設定グラデーション_465"/><linearGradient id="_名称未設定グラデーション_457" x1="67.75" y1="167.29" x2="174.64" y2="60.4" gradientUnits="userSpaceOnUse"><stop offset="0" stop-color="#f80e00"/><stop offset="1" stop-color="#fac938"/></linearGradient><linearGradient id="_名称未設定グラデーション_457-2" x1="123.34" y1="222.88" x2="230.23" y2="115.99" xlink:href="#_名称未設定グラデーション_457"/><linearGradient id="_名称未設定グラデーション_457-3" x1="83.3" y1="182.84" x2="190.2" y2="75.95" xlink:href="#_名称未設定グラデーション_457"/><linearGradient id="_名称未設定グラデーション_457-4" x1="60.59" y1="160.13" x2="167.49" y2="53.24" xlink:href="#_名称未設定グラデーション_457"/><linearGradient id="_名称未設定グラデーション_457-5" x1="66.57" y1="166.1" x2="173.46" y2="59.21" xlink:href="#_名称未設定グラデーション_457"/><linearGradient id="_名称未設定グラデーション_457-6" x1="85.14" y1="184.68" x2="192.03" y2="77.79" xlink:href="#_名称未設定グラデーション_457"/><linearGradient id="_名称未設定グラデーション_447" x1="62.26" y1="244.93" x2="169.15" y2="138.03" gradientUnits="userSpaceOnUse"><stop offset="0" stop-color="#14d7bc"/><stop offset="1" stop-color="#e6ff54"/></linearGradient><linearGradient id="_名称未設定グラデーション_447-2" x1="33.75" y1="216.42" x2="140.65" y2="109.53" xlink:href="#_名称未設定グラデーション_447"/><linearGradient id="_名称未設定グラデーション_447-3" x1="21.63" y1="204.3" x2="128.52" y2="97.4" xlink:href="#_名称未設定グラデーション_447"/><linearGradient id="_名称未設定グラデーション_447-4" x1="-5.34" y1="177.33" x2="101.56" y2="70.44" xlink:href="#_名称未設定グラデーション_447"/><linearGradient id="_名称未設定グラデーション_465-5" x1="39.14" y1="104.93" x2="146.03" y2="-1.96" xlink:href="#_名称未設定グラデーション_465"/><linearGradient id="_名称未設定グラデーション_465-6" x1="104.75" y1="170.54" x2="211.64" y2="63.65" xlink:href="#_名称未設定グラデーション_465"/><linearGradient id="_名称未設定グラデーション_447-5" x1="18.36" y1="201.03" x2="125.26" y2="94.14" xlink:href="#_名称未設定グラデーション_447"/><linearGradient id="_名称未設定グラデーション_447-6" x1="67.55" y1="250.22" x2="174.44" y2="143.33" xlink:href="#_名称未設定グラデーション_447"/></defs><g id="_レイヤー_1-2"><g><path class="cls-1" d="M83.53,143.56c-16.58-8.13-29.76-22.15-36.8-39.32-15.84,9.74-26.43,27.23-26.43,47.16,0,30.5,24.82,55.32,55.32,55.32,9.23,0,17.94-2.29,25.6-6.3-11.27-13.21-18.09-30.33-18.09-49.02,0-2.65,.14-5.26,.4-7.84Z"/><path class="cls-1" d="M130.9,149.9c-4.6,.88-9.33,1.34-14.18,1.34-4.52,0-8.95-.4-13.26-1.16-.01,.44-.03,.88-.03,1.32,0,13.95,5.2,26.7,13.75,36.45,8.55-9.74,13.75-22.49,13.75-36.45,0-.5-.02-1-.04-1.49Z"/><path class="cls-1" d="M88.58,123.22c3.08-7.64,7.37-14.67,12.64-20.84-7.66-4.02-16.36-6.3-25.6-6.3-3.39,0-6.7,.32-9.92,.91,4.62,11,12.71,20.2,22.88,26.23Z"/><path class="cls-1" d="M117.19,88.26c11.94-7.88,26.22-12.48,41.57-12.48,4.52,0,8.95,.4,13.26,1.16,.01-.44,.03-.88,.03-1.32,0-30.5-24.82-55.32-55.32-55.32s-55.32,24.82-55.32,55.32c0,.5,.02,1,.04,1.49,4.6-.88,9.33-1.34,14.18-1.34,15.34,0,29.63,4.6,41.57,12.48Z"/><path class="cls-1" d="M133.15,102.38c5.16,6.05,9.39,12.93,12.46,20.4,9.87-6.07,17.7-15.15,22.2-25.95-2.95-.49-5.97-.75-9.06-.75-9.23,0-17.94,2.29-25.6,6.3Z"/><path class="cls-1" d="M150.79,143.12c.3,2.72,.45,5.48,.45,8.28,0,18.69-6.82,35.81-18.09,49.02,7.66,4.02,16.36,6.3,25.6,6.3,30.5,0,55.32-24.82,55.32-55.32,0-20.23-10.92-37.95-27.18-47.6-6.88,17.06-19.8,31.06-36.11,39.32Z"/><path class="cls-1" d="M116.72,130.94c3.39,0,6.7-.32,9.92-.91-2.33-5.54-5.55-10.62-9.46-15.08-3.95,4.5-7.18,9.63-9.52,15.24,2.95,.49,5.97,.75,9.06,.75Z"/><path class="cls-2" d="M116.72,130.94c-3.08,0-6.11-.27-9.06-.75-2.56,6.15-4.04,12.86-4.2,19.89,4.31,.76,8.74,1.16,13.26,1.16,4.85,0,9.59-.46,14.18-1.34-.19-7.02-1.68-13.73-4.26-19.87-3.22,.59-6.53,.91-9.92,.91Z"/><path class="cls-15" d="M83.53,143.56c.74-7.12,2.47-13.94,5.04-20.34-10.17-6.04-18.26-15.23-22.88-26.23-6.84,1.24-13.25,3.74-18.97,7.26,7.05,17.17,20.23,31.19,36.8,39.32Z"/><path class="cls-16" d="M145.61,122.78c2.62,6.39,4.4,13.22,5.18,20.35,16.31-8.26,29.23-22.26,36.11-39.32-5.77-3.43-12.22-5.83-19.09-6.97-4.5,10.8-12.33,19.88-22.2,25.95Z"/><path class="cls-18" d="M61.4,75.62c0-30.5,24.82-55.32,55.32-55.32s55.32,24.82,55.32,55.32c0,.44-.02,.88-.03,1.32,7.02,1.25,13.71,3.47,19.93,6.52,.27-2.58,.4-5.19,.4-7.84C192.34,33.92,158.42,0,116.72,0S41.1,33.92,41.1,75.62c0,2.8,.16,5.56,.45,8.28,6.19-3.14,12.87-5.44,19.88-6.78-.01-.5-.04-.99-.04-1.49Z"/><path class="cls-3" d="M117.19,88.26c5.97,3.94,11.34,8.7,15.97,14.12,7.66-4.02,16.36-6.3,25.6-6.3,3.08,0,6.11,.27,9.06,.75,2.56-6.15,4.04-12.86,4.2-19.89-4.31-.76-8.74-1.16-13.26-1.16-15.34,0-29.63,4.6-41.57,12.48Z"/><path class="cls-14" d="M191.94,83.46c-.74,7.12-2.47,13.94-5.04,20.34,16.25,9.65,27.18,27.37,27.18,47.6,0,30.5-24.82,55.32-55.32,55.32-9.23,0-17.94-2.29-25.6-6.3-4.63,5.42-10,10.18-15.97,14.12,11.94,7.88,26.22,12.48,41.57,12.48,41.7,0,75.62-33.92,75.62-75.62,0-29.8-17.33-55.62-42.43-67.94Z"/><path class="cls-13" d="M103.46,150.08c-7.02-1.25-13.71-3.47-19.93-6.52-.27,2.58-.4,5.19-.4,7.84,0,18.69,6.82,35.81,18.09,49.02,6.07-3.18,11.48-7.46,15.97-12.57-8.55-9.74-13.75-22.49-13.75-36.45,0-.44,.02-.88,.03-1.32Z"/><path class="cls-11" d="M117.19,114.95c-4.49-5.11-9.89-9.39-15.97-12.57-5.27,6.17-9.56,13.2-12.64,20.84,5.77,3.43,12.22,5.83,19.09,6.97,2.34-5.6,5.57-10.74,9.52-15.24Z"/><path class="cls-12" d="M88.58,123.22c-2.58,6.4-4.31,13.22-5.04,20.34,6.22,3.05,12.91,5.27,19.93,6.52,.17-7.03,1.64-13.74,4.2-19.89-6.87-1.14-13.31-3.54-19.09-6.97Z"/><path class="cls-10" d="M167.81,96.83c6.87,1.14,13.31,3.54,19.09,6.97,2.58-6.4,4.31-13.22,5.04-20.34-6.22-3.05-12.91-5.27-19.93-6.52-.17,7.03-1.64,13.74-4.2,19.89Z"/><path class="cls-4" d="M150.79,143.12c-6.19,3.14-12.87,5.44-19.88,6.78,.01,.5,.04,.99,.04,1.49,0,13.95-5.2,26.7-13.75,36.45,4.49,5.11,9.89,9.39,15.97,12.57,11.27-13.21,18.09-30.33,18.09-49.02,0-2.8-.16-5.56-.45-8.28Z"/><path class="cls-8" d="M117.19,114.95c3.91,4.46,7.13,9.54,9.46,15.08,6.84-1.24,13.25-3.74,18.97-7.26-3.07-7.47-7.29-14.34-12.46-20.4-6.07,3.18-11.48,7.46-15.97,12.57Z"/><path class="cls-6" d="M101.22,200.41c-7.66,4.02-16.36,6.3-25.6,6.3-30.5,0-55.32-24.82-55.32-55.32,0-19.92,10.59-37.41,26.43-47.16-2.62-6.39-4.4-13.22-5.18-20.35C16.92,96.38,0,121.95,0,151.4c0,41.7,33.92,75.62,75.62,75.62,15.34,0,29.63-4.6,41.57-12.48-5.97-3.94-11.34-8.7-15.97-14.12Z"/><path class="cls-7" d="M101.22,102.38c4.63-5.42,10-10.18,15.97-14.12-11.94-7.88-26.22-12.48-41.57-12.48-4.85,0-9.59,.46-14.18,1.34,.19,7.02,1.68,13.73,4.26,19.87,3.22-.59,6.53-.91,9.92-.91,9.23,0,17.94,2.29,25.6,6.3Z"/><path class="cls-19" d="M65.7,96.99c-2.58-6.14-4.07-12.85-4.26-19.87-7.02,1.34-13.69,3.64-19.88,6.78,.78,7.12,2.55,13.95,5.18,20.35,5.72-3.52,12.13-6.01,18.97-7.26Z"/><path class="cls-17" d="M130.9,149.9c7.02-1.34,13.69-3.64,19.88-6.78-.78-7.12-2.55-13.95-5.18-20.35-5.72,3.52-12.13,6.01-18.97,7.26,2.58,6.14,4.07,12.85,4.26,19.87Z"/><path class="cls-9" d="M117.19,114.95c4.49-5.11,9.89-9.39,15.97-12.57-4.63-5.42-10-10.18-15.97-14.12-5.97,3.94-11.34,8.7-15.97,14.12,6.07,3.18,11.48,7.46,15.97,12.57Z"/><path class="cls-5" d="M133.15,200.41c-6.07-3.18-11.48-7.46-15.97-12.57-4.49,5.11-9.89,9.39-15.97,12.57,4.63,5.42,10,10.18,15.97,14.12,5.97-3.94,11.34-8.7,15.97-14.12Z"/></g></g></svg>