<?xml version="1.0" encoding="UTF-8"?><svg id="_レイヤー_2" xmlns="http://www.w3.org/2000/svg" xmlns:xlink="http://www.w3.org/1999/xlink" viewBox="0 0 276.77 274.23"><defs><style>.cls-1{fill:none;}.cls-2{fill:url(#_名称未設定グラデーション_465);}.cls-3{fill:url(#_名称未設定グラデーション_457);}.cls-4{fill:url(#_名称未設定グラデーション_447);}.cls-5{fill:url(#_名称未設定グラデーション_496);}.cls-6{fill:url(#_名称未設定グラデーション_447-6);}.cls-7{fill:url(#_名称未設定グラデーション_447-3);}.cls-8{fill:url(#_名称未設定グラデーション_447-4);}.cls-9{fill:url(#_名称未設定グラデーション_447-2);}.cls-10{fill:url(#_名称未設定グラデーション_447-5);}.cls-11{fill:url(#_名称未設定グラデーション_457-6);}.cls-12{fill:url(#_名称未設定グラデーション_457-4);}.cls-13{fill:url(#_名称未設定グラデーション_457-5);}.cls-14{fill:url(#_名称未設定グラデーション_457-3);}.cls-15{fill:url(#_名称未設定グラデーション_457-2);}.cls-16{fill:url(#_名称未設定グラデーション_465-2);}.cls-17{fill:url(#_名称未設定グラデーション_465-3);}.cls-18{fill:url(#_名称未設定グラデーション_465-6);}.cls-19{fill:url(#_名称未設定グラデーション_465-7);}.cls-20{fill:url(#_名称未設定グラデーション_465-4);}.cls-21{fill:url(#_名称未設定グラデーション_465-5);}.cls-22{fill:url(#_名称未設定グラデーション_496-2);}.cls-23{fill:url(#_名称未設定グラデーション_496-3);}.cls-24{fill:url(#_名称未設定グラデーション_496-5);}.cls-25{fill:url(#_名称未設定グラデーション_496-6);}.cls-26{fill:url(#_名称未設定グラデーション_496-7);}.cls-27{fill:url(#_名称未設定グラデーション_496-8);}.cls-28{fill:url(#_名称未設定グラデーション_496-9);}.cls-29{fill:url(#_名称未設定グラデーション_496-4);}.cls-30{fill:url(#_名称未設定グラデーション_496-10);}.cls-31{fill:url(#_名称未設定グラデーション_496-11);}</style><linearGradient id="_名称未設定グラデーション_496" x1="5.67" y1="266.74" x2="25.36" y2="232.64" gradientUnits="userSpaceOnUse"><stop offset="0" stop-color="red"/><stop offset=".11" stop-color="#fe0901"/><stop offset=".29" stop-color="#fe2405"/><stop offset=".52" stop-color="#fc4f0b"/><stop offset=".8" stop-color="#fb8914"/><stop offset="1" stop-color="#faba1c"/></linearGradient><linearGradient id="_名称未設定グラデーション_496-2" x1="33.63" y1="263.19" x2="47.25" y2="239.6" xlink:href="#_名称未設定グラデーション_496"/><linearGradient id="_名称未設定グラデーション_496-3" x1="52.3" y1="261.01" x2="67.32" y2="234.98" xlink:href="#_名称未設定グラデーション_496"/><linearGradient id="_名称未設定グラデーション_496-4" x1="79.34" y1="263.19" x2="92.96" y2="239.6" xlink:href="#_名称未設定グラデーション_496"/><linearGradient id="_名称未設定グラデーション_496-5" x1="100.63" y1="266.27" x2="116.55" y2="238.71" xlink:href="#_名称未設定グラデーション_496"/><linearGradient id="_名称未設定グラデーション_496-6" x1="124.09" y1="273.58" x2="144.17" y2="238.79" xlink:href="#_名称未設定グラデーション_496"/><linearGradient id="_名称未設定グラデーション_496-7" x1="154.42" y1="263.19" x2="168.04" y2="239.6" xlink:href="#_名称未設定グラデーション_496"/><linearGradient id="_名称未設定グラデーション_496-8" x1="181.88" y1="265.81" x2="200.61" y2="233.36" xlink:href="#_名称未設定グラデーション_496"/><linearGradient id="_名称未設定グラデーション_496-9" x1="208.41" y1="266.27" x2="224.32" y2="238.71" xlink:href="#_名称未設定グラデーション_496"/><linearGradient id="_名称未設定グラデーション_496-10" x1="236.23" y1="263" x2="249.84" y2="239.42" xlink:href="#_名称未設定グラデーション_496"/><linearGradient id="_名称未設定グラデーション_496-11" x1="259.59" y1="261.32" x2="274.95" y2="234.72" xlink:href="#_名称未設定グラデーション_496"/><linearGradient id="_名称未設定グラデーション_465" x1="116.99" y1="148.29" x2="214.5" y2="50.78" gradientUnits="userSpaceOnUse"><stop offset="0" stop-color="#ffc100"/><stop offset="1" stop-color="#faf959"/></linearGradient><linearGradient id="_名称未設定グラデーション_465-2" x1="84.93" y1="116.23" x2="182.44" y2="18.71" xlink:href="#_名称未設定グラデーション_465"/><linearGradient id="_名称未設定グラデーション_465-3" x1="127.3" y1="158.6" x2="224.81" y2="61.09" xlink:href="#_名称未設定グラデーション_465"/><linearGradient id="_名称未設定グラデーション_465-4" x1="81" y1="112.3" x2="178.51" y2="14.79" xlink:href="#_名称未設定グラデーション_465"/><linearGradient id="_名称未設定グラデーション_457" x1="90.52" y1="152.61" x2="188.03" y2="55.09" gradientUnits="userSpaceOnUse"><stop offset="0" stop-color="#f80e00"/><stop offset="1" stop-color="#fac938"/></linearGradient><linearGradient id="_名称未設定グラデーション_457-2" x1="141.23" y1="203.32" x2="238.74" y2="105.8" xlink:href="#_名称未設定グラデーション_457"/><linearGradient id="_名称未設定グラデーション_457-3" x1="104.71" y1="166.79" x2="202.22" y2="69.28" xlink:href="#_名称未設定グラデーション_457"/><linearGradient id="_名称未設定グラデーション_457-4" x1="83.99" y1="146.08" x2="181.5" y2="48.57" xlink:href="#_名称未設定グラデーション_457"/><linearGradient id="_名称未設定グラデーション_465-5" x1="104.83" y1="136.13" x2="202.34" y2="38.62" xlink:href="#_名称未設定グラデーション_465"/><linearGradient id="_名称未設定グラデーション_457-5" x1="89.44" y1="151.52" x2="186.95" y2="54.01" xlink:href="#_名称未設定グラデーション_457"/><linearGradient id="_名称未設定グラデーション_457-6" x1="106.39" y1="168.47" x2="203.9" y2="70.96" xlink:href="#_名称未設定グラデーション_457"/><linearGradient id="_名称未設定グラデーション_447" x1="85.51" y1="223.43" x2="183.02" y2="125.92" gradientUnits="userSpaceOnUse"><stop offset="0" stop-color="#14d7bc"/><stop offset="1" stop-color="#e6ff54"/></linearGradient><linearGradient id="_名称未設定グラデーション_447-2" x1="59.51" y1="197.43" x2="157.02" y2="99.92" xlink:href="#_名称未設定グラデーション_447"/><linearGradient id="_名称未設定グラデーション_447-3" x1="48.45" y1="186.36" x2="145.96" y2="88.85" xlink:href="#_名称未設定グラデーション_447"/><linearGradient id="_名称未設定グラデーション_447-4" x1="23.85" y1="161.77" x2="121.36" y2="64.26" xlink:href="#_名称未設定グラデーション_447"/><linearGradient id="_名称未設定グラデーション_465-6" x1="64.42" y1="95.72" x2="161.93" y2="-1.79" xlink:href="#_名称未設定グラデーション_465"/><linearGradient id="_名称未設定グラデーション_465-7" x1="124.27" y1="155.57" x2="221.78" y2="58.06" xlink:href="#_名称未設定グラデーション_465"/><linearGradient id="_名称未設定グラデーション_447-5" x1="45.47" y1="183.39" x2="142.98" y2="85.88" xlink:href="#_名称未設定グラデーション_447"/><linearGradient id="_名称未設定グラデーション_447-6" x1="90.34" y1="228.26" x2="187.85" y2="130.74" xlink:href="#_名称未設定グラデーション_447"/></defs><g id="_レイヤー_1-2"><g><path class="cls-5" d="M28.37,239.63c0,1.33-.21,2.55-.62,3.66-.42,1.11-1,2.12-1.74,3.02-.75,.9-1.65,1.68-2.69,2.34-1.05,.66-2.19,1.23-3.41,1.69l8.57,13.11h-9.27l-7.23-11.72h-1.94l-2.04,11.72H0l5.83-33.2h11.57c1.69,0,3.22,.23,4.59,.7,1.36,.47,2.52,1.11,3.46,1.92,.95,.81,1.67,1.79,2.17,2.94,.5,1.15,.75,2.42,.75,3.81Zm-15.4,5.98c1,0,1.95-.09,2.87-.28,.91-.18,1.71-.49,2.39-.93,.68-.44,1.23-1,1.65-1.7,.41-.7,.62-1.57,.62-2.61,0-1.37-.41-2.34-1.22-2.91-.81-.57-1.84-.85-3.07-.85h-3.39l-1.65,9.27h1.79Z"/><path class="cls-22" d="M42.67,238.53c1.2,0,2.27,.16,3.22,.47,.95,.32,1.75,.76,2.39,1.32,.65,.57,1.15,1.22,1.5,1.97s.52,1.54,.52,2.37c0,1.66-.42,3.08-1.27,4.26-.85,1.18-1.94,2.16-3.29,2.94-1.35,.78-2.87,1.35-4.56,1.72-1.69,.37-3.39,.55-5.08,.55-.03,.2-.05,.37-.05,.5v.45c0,1.03,.25,1.83,.75,2.39,.5,.57,1.33,.85,2.49,.85,1.06,0,2.21-.16,3.44-.47,1.23-.32,2.41-.81,3.54-1.47l1.5,4.99c-1.36,.83-2.87,1.47-4.51,1.92s-3.38,.67-5.21,.67c-1.6,0-2.98-.24-4.16-.72-1.18-.48-2.17-1.15-2.97-1.99-.8-.85-1.39-1.83-1.77-2.94-.38-1.11-.57-2.3-.57-3.56,0-2.33,.33-4.48,1-6.46,.66-1.98,1.6-3.69,2.82-5.13s2.69-2.58,4.44-3.39c1.74-.81,3.7-1.22,5.86-1.22Zm-1.2,5.33c-1.06,0-2.03,.49-2.89,1.47-.87,.98-1.43,2.27-1.7,3.86,.83-.03,1.64-.14,2.42-.32,.78-.18,1.47-.44,2.07-.77,.6-.33,1.07-.71,1.42-1.15,.35-.43,.52-.93,.52-1.5,0-1.06-.62-1.59-1.84-1.59Z"/><path class="cls-23" d="M56.53,263.46c-1.36-9.17-3.24-17.32-5.63-24.43h7.68c.76,2.59,1.45,5.28,2.04,8.08s1.03,5.75,1.3,8.87c.63-1.33,1.2-2.65,1.69-3.96,.5-1.31,.95-2.65,1.35-4.01,.4-1.36,.73-2.78,1-4.26,.27-1.48,.48-3.05,.65-4.71h7.73c-.67,4.65-1.83,8.97-3.49,12.96-1.66,3.99-3.64,7.81-5.93,11.47h-8.38Z"/><path class="cls-29" d="M88.39,238.53c1.2,0,2.27,.16,3.22,.47,.95,.32,1.75,.76,2.39,1.32,.65,.57,1.15,1.22,1.5,1.97s.52,1.54,.52,2.37c0,1.66-.42,3.08-1.27,4.26-.85,1.18-1.94,2.16-3.29,2.94-1.35,.78-2.87,1.35-4.56,1.72-1.69,.37-3.39,.55-5.08,.55-.03,.2-.05,.37-.05,.5v.45c0,1.03,.25,1.83,.75,2.39,.5,.57,1.33,.85,2.49,.85,1.06,0,2.21-.16,3.44-.47,1.23-.32,2.41-.81,3.54-1.47l1.5,4.99c-1.36,.83-2.87,1.47-4.51,1.92s-3.38,.67-5.21,.67c-1.6,0-2.98-.24-4.16-.72-1.18-.48-2.17-1.15-2.97-1.99-.8-.85-1.39-1.83-1.77-2.94-.38-1.11-.57-2.3-.57-3.56,0-2.33,.33-4.48,1-6.46,.66-1.98,1.6-3.69,2.82-5.13s2.69-2.58,4.44-3.39c1.74-.81,3.7-1.22,5.86-1.22Zm-1.2,5.33c-1.06,0-2.03,.49-2.89,1.47-.87,.98-1.43,2.27-1.7,3.86,.83-.03,1.64-.14,2.42-.32,.78-.18,1.47-.44,2.07-.77,.6-.33,1.07-.71,1.42-1.15,.35-.43,.52-.93,.52-1.5,0-1.06-.62-1.59-1.84-1.59Z"/><path class="cls-24" d="M95.77,263.46l4.34-24.43h7.48l-.7,3.79c.76-1.23,1.77-2.25,3.02-3.07,1.25-.81,2.75-1.22,4.5-1.22,1.12,0,2.11,.22,2.95,.65,.84,.43,1.54,1.03,2.11,1.79,.56,.76,.98,1.66,1.26,2.69,.28,1.03,.42,2.14,.42,3.34,0,.47-.03,.95-.08,1.45-.05,.5-.11,.98-.17,1.45l-2.38,13.56h-7.74l2.39-13.56c.07-.33,.12-.69,.15-1.07,.03-.38,.05-.76,.05-1.12,0-.86-.15-1.6-.45-2.19-.3-.6-.83-.9-1.6-.9-1.03,0-2.01,.48-2.94,1.45-.93,.96-1.71,2.04-2.34,3.24l-2.49,14.16h-7.78Z"/><path class="cls-25" d="M145.07,261.27c-.33,1.89-.85,3.64-1.55,5.23-.7,1.59-1.61,2.97-2.74,4.11-1.13,1.15-2.48,2.04-4.04,2.67-1.56,.63-3.39,.95-5.48,.95-1.5,0-3.13-.18-4.91-.55-1.78-.37-3.43-.92-4.96-1.66l1.5-5.67c1.4,.63,2.71,1.09,3.94,1.37,1.23,.28,2.43,.42,3.59,.42,2.09,0,3.66-.6,4.71-1.79,1.05-1.2,1.77-2.92,2.17-5.18l.5-2.84c-.96,1.27-2.06,2.31-3.29,3.12-1.23,.8-2.64,1.21-4.24,1.21-1.3,0-2.41-.26-3.34-.77-.93-.51-1.69-1.2-2.27-2.04-.58-.85-1.01-1.8-1.27-2.87-.27-1.06-.4-2.16-.4-3.29,0-2.13,.31-4.11,.92-5.96,.61-1.84,1.52-3.45,2.72-4.81,1.2-1.36,2.67-2.43,4.44-3.22,1.76-.78,3.81-1.17,6.13-1.17,1.99,0,3.96,.24,5.91,.72,1.94,.48,3.76,1.17,5.46,2.07l-3.49,19.94Zm-11.97-4.69c.86,0,1.82-.42,2.87-1.27,1.05-.84,2.07-2.09,3.07-3.75l1.2-6.8c-.27-.13-.62-.25-1.07-.35-.45-.1-.96-.15-1.52-.15-1.2,0-2.23,.26-3.09,.79-.87,.53-1.58,1.22-2.14,2.06s-.98,1.8-1.25,2.85-.4,2.14-.4,3.23c0,.99,.18,1.8,.55,2.43,.37,.63,.96,.94,1.79,.94Z"/><path class="cls-26" d="M163.46,238.53c1.2,0,2.27,.16,3.22,.47,.95,.32,1.75,.76,2.39,1.32,.65,.57,1.15,1.22,1.5,1.97s.52,1.54,.52,2.37c0,1.66-.42,3.08-1.27,4.26-.85,1.18-1.94,2.16-3.29,2.94-1.35,.78-2.87,1.35-4.56,1.72-1.69,.37-3.39,.55-5.08,.55-.03,.2-.05,.37-.05,.5v.45c0,1.03,.25,1.83,.75,2.39,.5,.57,1.33,.85,2.49,.85,1.06,0,2.21-.16,3.44-.47,1.23-.32,2.41-.81,3.54-1.47l1.5,4.99c-1.36,.83-2.87,1.47-4.51,1.92s-3.38,.67-5.21,.67c-1.6,0-2.98-.24-4.16-.72-1.18-.48-2.17-1.15-2.97-1.99-.8-.85-1.39-1.83-1.77-2.94-.38-1.11-.57-2.3-.57-3.56,0-2.33,.33-4.48,1-6.46,.66-1.98,1.6-3.69,2.82-5.13s2.69-2.58,4.44-3.39c1.74-.81,3.7-1.22,5.86-1.22Zm-1.2,5.33c-1.06,0-2.03,.49-2.89,1.47-.87,.98-1.43,2.27-1.7,3.86,.83-.03,1.64-.14,2.42-.32,.78-.18,1.47-.44,2.07-.77,.6-.33,1.07-.71,1.42-1.15,.35-.43,.52-.93,.52-1.5,0-1.06-.62-1.59-1.84-1.59Z"/><path class="cls-27" d="M177.82,263.46l6.18-35.2h7.78l-3.89,22.23,7.63-11.47h9.02l-9.12,12.36c.7,1.73,1.69,3.63,2.97,5.71,1.28,2.08,2.75,4.2,4.41,6.36h-8.97c-1.43-1.96-2.67-3.99-3.71-6.08s-1.85-3.99-2.42-5.68l-2.09,11.77h-7.78Z"/><path class="cls-28" d="M203.54,263.46l4.34-24.43h7.48l-.7,3.79c.76-1.23,1.77-2.25,3.02-3.07,1.25-.81,2.75-1.22,4.5-1.22,1.12,0,2.11,.22,2.95,.65,.84,.43,1.54,1.03,2.11,1.79,.56,.76,.98,1.66,1.26,2.69,.28,1.03,.42,2.14,.42,3.34,0,.47-.03,.95-.08,1.45-.05,.5-.11,.98-.17,1.45l-2.38,13.56h-7.74l2.39-13.56c.07-.33,.12-.69,.15-1.07,.03-.38,.05-.76,.05-1.12,0-.86-.15-1.6-.45-2.19-.3-.6-.83-.9-1.6-.9-1.03,0-2.01,.48-2.94,1.45-.93,.96-1.71,2.04-2.34,3.24l-2.49,14.16h-7.78Z"/><path class="cls-30" d="M255.59,248.7c0,1.96-.31,3.86-.92,5.71-.62,1.84-1.53,3.47-2.74,4.89-1.21,1.41-2.73,2.54-4.54,3.39-1.81,.85-3.9,1.27-6.26,1.27-1.66,0-3.14-.27-4.44-.8-1.3-.53-2.39-1.26-3.29-2.19-.9-.93-1.59-2.02-2.07-3.27-.48-1.25-.72-2.57-.72-3.96,0-2.33,.34-4.42,1.02-6.28,.68-1.86,1.64-3.46,2.87-4.79,1.23-1.33,2.72-2.35,4.46-3.07,1.74-.71,3.7-1.07,5.86-1.07,1.73,0,3.27,.27,4.61,.8,1.35,.53,2.48,1.25,3.39,2.17,.91,.91,1.6,1.99,2.07,3.24,.46,1.25,.7,2.57,.7,3.96Zm-13.66,9.32c1.03,0,1.92-.28,2.67-.85,.75-.56,1.35-1.28,1.82-2.14,.47-.86,.81-1.82,1.05-2.87,.23-1.05,.35-2.05,.35-3.02,0-1.23-.3-2.32-.9-3.27-.6-.95-1.56-1.42-2.89-1.42-.93,0-1.74,.26-2.44,.77-.7,.52-1.29,1.2-1.77,2.04-.48,.85-.84,1.82-1.07,2.92-.23,1.1-.35,2.21-.35,3.34,0,1.2,.27,2.24,.82,3.14,.55,.9,1.45,1.35,2.72,1.35Z"/><path class="cls-31" d="M257.83,239.03h4.14l1.2-6.63h7.78l-1.15,6.63h6.98l-1.05,6.08h-7.03l-1.79,10.03c-.03,.17-.06,.32-.08,.47-.02,.15-.02,.31-.02,.47,0,.56,.17,1.03,.5,1.39,.33,.36,.83,.55,1.5,.55s1.4-.08,2.09-.25c.7-.17,1.41-.4,2.14-.7l.65,5.18c-.9,.47-1.96,.86-3.19,1.2-1.23,.33-2.49,.5-3.79,.5-2.43,0-4.31-.69-5.66-2.06-1.35-1.38-2.02-3.11-2.02-5.2,0-.33,.02-.67,.05-1.02,.03-.35,.08-.67,.15-.97l1.7-9.6h-4.14l1.05-6.08Z"/></g><g><path class="cls-1" d="M104.92,130.96c-15.12-7.42-27.15-20.21-33.57-35.87-14.45,8.89-24.11,24.84-24.11,43.02,0,27.83,22.64,50.46,50.46,50.46,8.42,0,16.36-2.08,23.35-5.75-10.28-12.05-16.5-27.67-16.5-44.72,0-2.41,.13-4.8,.37-7.15Z"/><path class="cls-1" d="M148.13,136.74c-4.19,.8-8.52,1.22-12.94,1.22-4.12,0-8.17-.37-12.09-1.06,0,.4-.03,.8-.03,1.2,0,12.73,4.75,24.36,12.55,33.25,7.8-8.89,12.55-20.52,12.55-33.25,0-.46-.02-.91-.03-1.36Z"/><path class="cls-1" d="M109.52,112.4c2.81-6.97,6.73-13.38,11.53-19.01-6.99-3.66-14.93-5.75-23.35-5.75-3.09,0-6.11,.29-9.05,.83,4.22,10.04,11.59,18.42,20.87,23.93Z"/><path class="cls-1" d="M135.62,80.51c10.89-7.19,23.92-11.39,37.92-11.39,4.12,0,8.17,.37,12.09,1.06,0-.4,.03-.8,.03-1.2,0-27.83-22.64-50.46-50.46-50.46s-50.46,22.64-50.46,50.46c0,.46,.02,.91,.03,1.36,4.19-.8,8.52-1.22,12.94-1.22,14,0,27.03,4.19,37.92,11.39Z"/><path class="cls-1" d="M150.18,93.39c4.71,5.52,8.57,11.79,11.36,18.61,9-5.54,16.14-13.82,20.25-23.67-2.69-.44-5.45-.69-8.26-.69-8.42,0-16.36,2.08-23.35,5.75Z"/><path class="cls-1" d="M166.27,130.56c.27,2.48,.41,5,.41,7.55,0,17.05-6.22,32.66-16.5,44.72,6.99,3.66,14.93,5.75,23.35,5.75,27.83,0,50.46-22.64,50.46-50.46,0-18.46-9.96-34.62-24.79-43.42-6.27,15.57-18.06,28.34-32.94,35.87Z"/><path class="cls-1" d="M135.2,119.45c3.09,0,6.11-.29,9.05-.83-2.13-5.06-5.06-9.69-8.63-13.76-3.6,4.1-6.55,8.79-8.68,13.9,2.69,.44,5.45,.69,8.26,.69Z"/><path class="cls-2" d="M135.2,119.45c-2.81,0-5.57-.24-8.26-.69-2.34,5.61-3.68,11.73-3.83,18.14,3.93,.7,7.97,1.06,12.09,1.06,4.42,0,8.74-.42,12.94-1.22-.17-6.41-1.53-12.52-3.88-18.13-2.94,.53-5.96,.83-9.05,.83Z"/><path class="cls-16" d="M104.92,130.96c.67-6.49,2.25-12.72,4.6-18.55-9.28-5.51-16.65-13.9-20.87-23.93-6.24,1.14-12.08,3.41-17.3,6.62,6.43,15.66,18.45,28.45,33.57,35.87Z"/><path class="cls-17" d="M161.55,112c2.39,5.83,4.01,12.06,4.72,18.56,14.87-7.54,26.67-20.31,32.94-35.87-5.27-3.13-11.15-5.32-17.41-6.36-4.11,9.85-11.24,18.13-20.25,23.67Z"/><path class="cls-20" d="M84.73,68.98c0-27.83,22.64-50.46,50.46-50.46s50.46,22.64,50.46,50.46c0,.4-.02,.8-.03,1.2,6.41,1.14,12.51,3.17,18.18,5.95,.24-2.35,.37-4.74,.37-7.15C204.18,30.95,173.23,0,135.2,0S66.21,30.95,66.21,68.98c0,2.55,.14,5.07,.41,7.55,5.65-2.86,11.74-4.97,18.14-6.19-.01-.45-.03-.91-.03-1.36Z"/><path class="cls-3" d="M135.62,80.51c5.44,3.59,10.35,7.94,14.57,12.88,6.99-3.66,14.93-5.75,23.35-5.75,2.81,0,5.57,.24,8.26,.69,2.34-5.61,3.68-11.73,3.83-18.14-3.93-.7-7.97-1.06-12.09-1.06-14,0-27.03,4.19-37.92,11.39Z"/><path class="cls-15" d="M203.81,76.13c-.67,6.49-2.25,12.72-4.6,18.55,14.83,8.8,24.79,24.96,24.79,43.42,0,27.83-22.64,50.46-50.46,50.46-8.42,0-16.36-2.08-23.35-5.75-4.22,4.95-9.12,9.29-14.57,12.88,10.89,7.19,23.92,11.39,37.92,11.39,38.04,0,68.98-30.95,68.98-68.98,0-27.18-15.81-50.74-38.71-61.97Z"/><path class="cls-14" d="M123.1,136.9c-6.41-1.14-12.51-3.17-18.18-5.95-.24,2.35-.37,4.74-.37,7.15,0,17.05,6.22,32.66,16.5,44.72,5.54-2.9,10.47-6.81,14.57-11.47-7.8-8.89-12.55-20.52-12.55-33.25,0-.4,.02-.8,.03-1.2Z"/><path class="cls-12" d="M135.62,104.86c-4.09-4.66-9.03-8.56-14.57-11.47-4.8,5.63-8.72,12.04-11.53,19.01,5.27,3.13,11.15,5.32,17.41,6.36,2.13-5.11,5.08-9.8,8.68-13.9Z"/><path class="cls-21" d="M109.52,112.4c-2.35,5.83-3.93,12.06-4.6,18.55,5.67,2.78,11.77,4.81,18.18,5.95,.15-6.41,1.49-12.53,3.83-18.14-6.27-1.04-12.15-3.23-17.41-6.36Z"/><path class="cls-13" d="M109.52,112.4c-2.35,5.83-3.93,12.06-4.6,18.55,5.67,2.78,11.77,4.81,18.18,5.95,.15-6.41,1.49-12.53,3.83-18.14-6.27-1.04-12.15-3.23-17.41-6.36Z"/><path class="cls-11" d="M181.8,88.33c6.27,1.04,12.15,3.23,17.41,6.36,2.35-5.83,3.93-12.06,4.6-18.55-5.67-2.78-11.77-4.81-18.18-5.95-.15,6.41-1.49,12.53-3.83,18.14Z"/><path class="cls-4" d="M166.27,130.56c-5.65,2.86-11.74,4.97-18.14,6.19,.01,.45,.03,.91,.03,1.36,0,12.73-4.75,24.36-12.55,33.25,4.09,4.66,9.03,8.56,14.57,11.47,10.28-12.05,16.5-27.67,16.5-44.72,0-2.55-.14-5.07-.41-7.55Z"/><path class="cls-9" d="M135.62,104.86c3.57,4.06,6.5,8.7,8.63,13.76,6.24-1.14,12.08-3.41,17.3-6.62-2.8-6.81-6.65-13.08-11.36-18.61-5.54,2.9-10.47,6.81-14.57,11.47Z"/><path class="cls-7" d="M121.05,182.82c-6.99,3.66-14.93,5.75-23.35,5.75-27.83,0-50.46-22.64-50.46-50.46,0-18.17,9.66-34.13,24.11-43.02-2.39-5.83-4.01-12.06-4.72-18.56-22.47,11.39-37.91,34.71-37.91,61.58,0,38.04,30.95,68.98,68.98,68.98,14,0,27.03-4.19,37.92-11.39-5.44-3.59-10.35-7.94-14.57-12.88Z"/><path class="cls-8" d="M121.05,93.39c4.22-4.95,9.12-9.29,14.57-12.88-10.89-7.19-23.92-11.39-37.92-11.39-4.42,0-8.74,.42-12.94,1.22,.17,6.41,1.53,12.52,3.88,18.13,2.94-.53,5.96-.83,9.05-.83,8.42,0,16.36,2.08,23.35,5.75Z"/><path class="cls-18" d="M88.65,88.47c-2.35-5.6-3.71-11.72-3.88-18.13-6.4,1.22-12.49,3.32-18.14,6.19,.71,6.5,2.33,12.73,4.72,18.56,5.22-3.21,11.06-5.48,17.3-6.62Z"/><path class="cls-19" d="M148.13,136.74c6.4-1.22,12.49-3.32,18.14-6.19-.71-6.5-2.33-12.73-4.72-18.56-5.22,3.21-11.06,5.48-17.3,6.62,2.35,5.6,3.71,11.72,3.88,18.13Z"/><path class="cls-10" d="M135.62,104.86c4.09-4.66,9.03-8.56,14.57-11.47-4.22-4.95-9.12-9.29-14.57-12.88-5.44,3.59-10.35,7.94-14.57,12.88,5.54,2.9,10.47,6.81,14.57,11.47Z"/><path class="cls-6" d="M150.18,182.82c-5.54-2.9-10.47-6.81-14.57-11.47-4.09,4.66-9.03,8.56-14.57,11.47,4.22,4.95,9.12,9.29,14.57,12.88,5.44-3.59,10.35-7.94,14.57-12.88Z"/></g></g></svg>